<svg xmlns="http://www.w3.org/2000/svg"  viewBox="0 0 96 96" width="96px" height="96px"><path fill="#ffad00" d="M38.284,83.56c-0.632,0-1.25-0.095-1.867-0.293c-3.355-1.076-4.895-4.717-6.686-9.75 c-0.314-0.628-2.624-0.777-4.159-0.876c-2.806-0.181-5.985-0.386-7.923-2.802c-1.171-1.46-1.579-3.393-1.212-5.744 c0.137-0.828,0.387-1.691,0.651-2.605c0.303-1.047,1.108-3.831,0.718-4.482c-4.03-3.038-7.322-5.822-7.317-9.463 c0.004-3.629,3.244-6.386,7.177-9.348c0.242-0.231,0.352-0.563,0.296-0.893c-1.932-6.039-2.01-9.659-0.263-12.089 c1.893-2.634,5.039-2.672,7.566-2.704c2.762-0.034,3.892-0.207,4.526-1.11c1.977-5.896,4.027-8.816,6.826-9.74 c3.061-1.009,5.605,0.794,7.651,2.242c2.111,1.495,3.225,2.154,4.39,1.775c5.045-3.596,8.413-4.748,11.226-3.851 c3.079,0.984,4.083,3.952,4.891,6.337c0.833,2.459,1.346,3.64,2.506,3.996c5.044,0.139,9.056,0.515,11.096,3.33 c2.081,2.871,1.136,6.869-0.334,11.794c-0.064,0.336,0.046,0.678,0.294,0.914c3.937,2.978,7.179,5.747,7.175,9.362 c-0.004,3.66-3.295,6.431-7.271,9.419l-0.085,0.062c-0.331,0.627,0.42,3.229,0.741,4.34c0.281,0.975,0.547,1.896,0.67,2.746 c0.36,2.323-0.049,4.255-1.221,5.715c-1.938,2.413-5.114,2.617-7.917,2.796c-1.534,0.098-3.839,0.246-4.159,0.875 c-1.703,4.851-3.29,8.641-6.715,9.731c-3.172,1.008-6.409-0.654-10.93-3.866c-0.243-0.172-0.452-0.374-0.626-0.597 c-0.18,0.23-0.397,0.438-0.649,0.614C43.584,82.019,40.824,83.56,38.284,83.56z M22.556,28.754 c-0.106,0.271-0.482,1.759,1.16,6.848c0.022,0.069,0.042,0.139,0.06,0.21c0.633,2.593-0.239,5.275-2.274,7.001 c-0.044,0.038-0.09,0.075-0.137,0.11c-4.299,3.232-4.843,4.318-4.876,4.635c0.042,0.378,0.733,1.497,4.881,4.631 c3.852,2.774,2.369,7.904,1.482,10.969c-0.214,0.74-0.416,1.439-0.491,1.892c-0.122,0.784-0.008,1.072-0.006,1.075 c0.396,0.323,2.482,0.458,3.603,0.53c3.243,0.209,7.685,0.495,9.354,4.656c0.015,0.037,0.029,0.075,0.042,0.112 c1.336,3.758,2.316,5.824,2.914,6.139c0.279,0.037,1.462-0.168,5.652-3.089c1.314-0.915,3.105-0.634,4.08,0.614 c0.98-1.258,2.789-1.532,4.102-0.599c4.263,3.029,5.392,3.091,5.639,3.038c0.412-0.187,1.257-1.397,2.9-6.09 c0.015-0.042,0.03-0.083,0.047-0.124c1.67-4.169,6.114-4.454,9.358-4.661c1.113-0.071,3.18-0.204,3.632-0.578 c-0.016-0.005,0.071-0.311-0.044-1.054c-0.069-0.472-0.289-1.235-0.502-1.974c-0.88-3.05-2.354-8.155,1.582-10.918 c4.222-3.175,4.764-4.261,4.798-4.578c-0.042-0.378-0.732-1.497-4.881-4.63c-0.045-0.034-0.088-0.069-0.131-0.105 c-2.036-1.725-2.908-4.408-2.276-7c0.012-0.05,0.026-0.1,0.041-0.15c1.416-4.729,1.458-6.236,1.244-6.668 c-0.316-0.298-1.76-0.719-6.709-0.845c-0.181-0.004-0.362-0.026-0.54-0.063c-4.801-1.007-6.226-5.214-7.168-7.998 c-0.28-0.826-0.74-2.184-1.077-2.548c-0.314-0.011-1.845,0.109-6.154,3.225c-0.171,0.124-0.355,0.229-0.548,0.314 c-4.496,1.979-8.116-0.583-10.511-2.279c-0.703-0.498-1.857-1.314-2.342-1.417c-0.259,0.173-1.428,1.196-3.081,6.229 c-0.062,0.188-0.142,0.369-0.239,0.541c-2.412,4.265-6.858,4.32-9.801,4.356C24.457,28.522,23.003,28.54,22.556,28.754z" opacity=".3"/><path fill="#ffad00" d="M38.276,82.556c-0.531,0-1.046-0.079-1.554-0.241c-2.937-0.942-4.372-4.415-6.079-9.218 c-0.433-1.075-2.265-1.277-5.007-1.454c-2.726-0.176-5.545-0.357-7.207-2.429c-0.988-1.232-1.326-2.902-1.004-4.964 c0.126-0.761,0.368-1.597,0.624-2.481c0.554-1.915,1.391-4.81,0.343-5.564c-4.493-3.394-6.907-5.766-6.904-8.657 c0.003-2.894,2.398-5.253,6.817-8.58c0.541-0.481,0.777-1.204,0.626-1.912c-1.842-5.736-1.967-9.105-0.421-11.257 c1.598-2.224,4.344-2.257,6.767-2.287c2.712-0.034,4.452-0.135,5.42-1.668c1.877-5.646,3.747-8.413,6.232-9.232 c2.58-0.85,4.801,0.721,6.761,2.109c2.229,1.578,3.729,2.504,5.434,1.855c4.824-3.457,7.958-4.592,10.455-3.794 c2.598,0.83,3.475,3.42,4.249,5.705c0.875,2.583,1.512,4.214,3.302,4.671c4.823,0.129,8.647,0.45,10.438,2.92 c1.661,2.291,1.139,5.492-0.495,10.962c-0.158,0.713,0.079,1.445,0.625,1.929c4.423,3.345,6.818,5.71,6.814,8.591 c-0.003,2.907-2.417,5.273-6.872,8.621c-1.067,0.751-0.247,3.596,0.296,5.478c0.271,0.941,0.528,1.831,0.642,2.613 c0.317,2.044-0.022,3.714-1.011,4.945c-1.662,2.069-4.478,2.25-7.201,2.424c-2.742,0.175-4.574,0.377-5.037,1.531 c-1.59,4.546-3.069,8.164-6.076,9.12c-2.77,0.885-5.784-0.698-10.047-3.728c-0.901-0.64-1.112-1.888-0.472-2.789 c0.64-0.901,1.888-1.112,2.789-0.472c1.263,0.897,5.104,3.621,6.519,3.177c1.343-0.428,2.775-4.517,3.544-6.713 c1.467-3.666,5.38-3.917,8.525-4.118c1.684-0.108,3.78-0.242,4.338-0.937c0.335-0.418,0.253-1.337,0.174-1.847 c-0.077-0.53-0.296-1.292-0.529-2.097c-0.858-2.975-2.155-7.47,1.196-9.823c1.526-1.148,5.221-3.926,5.223-5.39 c0.002-1.446-3.698-4.241-5.278-5.435c-0.03-0.022-0.059-0.045-0.087-0.07c-1.745-1.479-2.493-3.778-1.951-6 c0.008-0.034,0.017-0.067,0.027-0.1c0.622-2.08,1.917-6.406,1.106-7.525c-0.8-1.104-5.327-1.219-7.503-1.274 c-0.121-0.003-0.241-0.017-0.359-0.042c-4.243-0.89-5.505-4.618-6.427-7.34c-0.493-1.456-1.003-2.962-1.677-3.177 c-0.396-0.126-2.076-0.257-7.086,3.364c-0.114,0.083-0.236,0.152-0.365,0.209c-3.979,1.75-7.188-0.521-9.531-2.18 c-1.247-0.882-2.538-1.794-3.196-1.575c-0.393,0.129-1.823,1.009-3.755,6.893c-0.042,0.125-0.095,0.246-0.16,0.36 c-2.128,3.765-6.067,3.813-8.942,3.849c-1.548,0.019-3.148,0.039-3.568,0.622c-0.312,0.434-0.838,2.061,1.006,7.775 c0.015,0.046,0.028,0.093,0.04,0.14c0.542,2.223-0.204,4.522-1.949,6.001c-0.03,0.025-0.061,0.05-0.091,0.073 c-1.579,1.187-5.274,3.965-5.276,5.428c-0.001,1.445,3.699,4.241,5.279,5.435c3.298,2.376,1.99,6.9,1.124,9.894 c-0.222,0.769-0.432,1.495-0.517,2.006c-0.077,0.491-0.16,1.409,0.175,1.827c0.558,0.696,2.657,0.832,4.343,0.94 c3.144,0.203,7.056,0.455,8.49,4.031c0.816,2.29,2.281,6.413,3.561,6.823c1.319,0.421,5.12-2.219,6.548-3.213 c0.906-0.632,2.153-0.409,2.784,0.497c0.632,0.906,0.409,2.153-0.497,2.784C43.173,81.086,40.572,82.556,38.276,82.556z" opacity=".3"/><path fill="#ffad00" d="M38.276,81.554c-0.432,0-0.846-0.063-1.249-0.191c-2.29-0.734-3.58-3.358-5.443-8.601 c-0.666-1.657-2.763-1.916-5.885-2.117c-2.51-0.162-5.105-0.329-6.491-2.057c-0.816-1.018-1.077-2.387-0.796-4.185 c0.115-0.693,0.349-1.501,0.596-2.357c0.707-2.444,1.586-5.487-0.032-6.653c-4.217-3.186-6.492-5.373-6.489-7.845 c0.003-2.487,2.277-4.668,6.473-7.823c0.827-0.703,1.2-1.854,0.929-2.965c-1.715-5.306-1.896-8.528-0.567-10.378 c1.303-1.813,3.674-1.842,5.967-1.871c2.585-0.032,5.029-0.062,6.321-2.244c1.756-5.314,3.495-8.001,5.632-8.707 c2.104-0.691,4.017,0.665,5.87,1.976c2.116,1.497,4.116,2.913,6.496,1.922c4.532-3.263,7.515-4.417,9.667-3.726 c2.117,0.676,2.874,2.912,3.606,5.073c0.831,2.455,1.617,4.776,4.117,5.348c5.369,0.141,8.357,0.574,9.76,2.51 c1.421,1.961,0.893,4.955-0.661,10.146c-0.257,1.062,0.116,2.212,0.989,2.951c4.154,3.136,6.429,5.324,6.426,7.797 c-0.003,2.488-2.277,4.669-6.472,7.823c-1.625,1.142-0.76,4.143-0.064,6.555c0.262,0.907,0.509,1.765,0.613,2.479 c0.277,1.789,0.016,3.158-0.801,4.175c-1.386,1.726-3.978,1.892-6.485,2.052c-3.123,0.2-5.22,0.458-5.901,2.157 c-1.773,5.065-3.109,7.794-5.451,8.539c-2.366,0.753-5.261-0.816-9.165-3.59c-0.45-0.32-0.556-0.944-0.236-1.394 c0.319-0.45,0.944-0.556,1.394-0.236c3.914,2.781,6.055,3.743,7.401,3.314c1.521-0.484,2.686-3.056,4.185-7.335 c1.216-3.039,4.632-3.258,7.646-3.45c2.074-0.133,4.22-0.27,5.054-1.309c0.445-0.555,0.57-1.414,0.382-2.626 c-0.085-0.589-0.314-1.382-0.557-2.222c-0.826-2.863-1.958-6.784,0.81-8.727c3.378-2.54,5.646-4.579,5.648-6.208 c0.002-1.619-2.17-3.585-5.675-6.233c-1.499-1.267-2.122-3.183-1.67-5.036c1.285-4.297,1.888-7.184,0.971-8.449 c-0.911-1.257-3.729-1.571-8.287-1.688c-0.061-0.001-0.121-0.008-0.18-0.021c-3.684-0.772-4.793-4.049-5.685-6.682 c-0.625-1.846-1.165-3.44-2.32-3.809c-1.438-0.462-4.122,0.72-7.977,3.506c-0.057,0.041-0.119,0.076-0.183,0.104 c-3.458,1.522-6.282-0.475-8.55-2.081c-1.581-1.119-2.946-2.085-4.087-1.709c-1.428,0.471-2.906,3.005-4.392,7.53 c-0.021,0.063-0.047,0.123-0.08,0.18c-1.846,3.264-5.305,3.307-8.084,3.341c-1.96,0.024-3.654,0.045-4.368,1.039 c-0.884,1.23-0.592,4.146,0.867,8.666c0.472,1.922-0.15,3.839-1.604,5.071c-3.45,2.597-5.718,4.635-5.72,6.263 c-0.002,1.619,2.17,3.585,5.676,6.233c2.744,1.977,1.601,5.931,0.766,8.818c-0.23,0.798-0.448,1.551-0.543,2.12 c-0.188,1.202-0.063,2.061,0.382,2.616c0.833,1.04,2.981,1.178,5.059,1.312c3.012,0.194,6.427,0.414,7.627,3.405 c1.583,4.451,2.711,6.932,4.183,7.403c1.495,0.481,4.047-0.991,7.425-3.345c0.455-0.315,1.077-0.204,1.392,0.249 c0.316,0.453,0.205,1.076-0.249,1.392C42.76,80.156,40.319,81.554,38.276,81.554z"/><g><path fill="#e0e722" d="M47.884,67c-11.769,0.001-17.871-9.044-18.552-17.473 c-0.685-8.472,3.898-18.431,15.575-20.276c1.2-0.19,2.349,0.362,2.977,1.317c0.616-0.964,1.759-1.531,2.961-1.355 c11.778,1.713,16.461,11.669,15.828,20.194C66.043,57.891,59.956,67,48.078,67C48.014,67,47.949,66.999,47.884,67z M47.906,33.827 c-0.446,0.699-1.178,1.211-2.062,1.351c-7.947,1.256-11.016,7.869-10.531,13.866C35.794,55.003,39.877,61,47.914,61 c0.044,0,0.09,0,0.136,0c8.122,0.001,12.195-6.039,12.641-12.038c0.448-6.035-2.688-12.646-10.708-13.813 C49.099,35.021,48.361,34.519,47.906,33.827z" opacity=".3"/><path fill="#e0e722" d="M47.894,66c-11.145,0.001-16.92-8.569-17.565-16.553 c-0.648-8.027,3.686-17.462,14.735-19.208c1.09-0.173,2.115,0.573,2.288,1.664s-0.572,2.115-1.664,2.288 c-8.579,1.355-11.894,8.478-11.372,14.935C34.834,55.542,39.24,62,47.912,62c0.048,0,0.097,0,0.147,0 c8.754,0.001,13.148-6.503,13.628-12.963c0.483-6.498-2.905-13.618-11.561-14.876c-1.093-0.159-1.851-1.174-1.691-2.267 c0.158-1.094,1.178-1.853,2.267-1.691c11.145,1.621,15.575,11.053,14.975,19.131C65.08,57.371,59.317,66,48.077,66 C48.016,66,47.954,66,47.894,66z" opacity=".3"/><path fill="#e0e722" d="M47.903,65c-10.52,0-15.968-8.093-16.578-15.634c-0.612-7.583,3.475-16.493,13.894-18.14 c0.549-0.083,1.058,0.286,1.144,0.832c0.086,0.546-0.286,1.058-0.832,1.144c-9.162,1.448-12.753,9.311-12.213,16.003 C33.875,56.081,38.603,63,47.911,63c0.052,0,0.104,0,0.158,0c9.386,0,14.102-6.968,14.616-13.89 c0.5-6.734-3.171-14.595-12.415-15.939c-0.546-0.08-0.925-0.587-0.846-1.134c0.08-0.547,0.587-0.924,1.134-0.846 c10.511,1.529,14.688,10.437,14.121,18.067C64.114,56.87,58.692,65.065,47.995,65C47.965,65,47.934,65,47.903,65z"/></g></svg>